<?xml version="1.0" encoding="UTF-8"?>
<!DOCTYPE svg PUBLIC "-//W3C//DTD SVG 1.1//EN" "http://www.w3.org/Graphics/SVG/1.1/DTD/svg11.dtd">
<svg version="1.1" xmlns="http://www.w3.org/2000/svg" xmlns:xlink="http://www.w3.org/1999/xlink" x="0" y="0" width="525" height="1025" viewBox="0, 0, 525, 1025">
  <g id="Layer_1">
    <path d="M411.165,1023.375 L118.665,1023.375 L121.165,934 L406.79,934 L411.165,1023.375" fill="#4D4E4C"/>
    <path d="M121.165,965.875 C121.165,965.875 118.665,1010.875 118.665,1021.5 M407.605,965.875 C407.605,965.875 410.105,1010.875 410.105,1021.5" fill-opacity="0" stroke="#1A1919" stroke-width="7" stroke-linecap="round" stroke-linejoin="round"/>
    <path d="M480.105,639 C480.105,639 521.98,730.25 518.855,754 C515.73,777.75 486.98,888.375 486.98,888.375 C486.98,888.375 497.605,932.125 493.23,939.625 C488.855,947.125 466.185,974.415 453.645,975.04 C441.145,975.665 426.975,971.085 415.415,969.625 C401.245,967.83 393.23,968.685 391.98,965.875 L392.6,966.915 C392.6,966.915 381.77,967.96 381.975,963.585 C382.18,959.21 391.975,954 391.975,954 L425.73,946.5 L437.605,690.25 L480.105,639" fill="#F8D2B5"/>
    <path d="M72.205,663.48 C72.205,663.48 86.785,686.82 85.955,698.9 L111.365,657.65 L112.81,676.07 C116.6,716.35 122.11,770.685 125.535,785.145 L398.035,785.145 C399.855,777.48 412.41,660.77 412.41,660.77 L430.54,692.75 C430.54,692.75 473.04,610.875 469.29,576.5 C465.54,542.125 443.765,515.52 429.915,510.25 C403.665,500.25 324.875,491.365 324.875,491.365 C311.66,471.745 296.525,464.02 296.525,464.02 L226.32,462.51 C226.32,462.51 208.205,475.58 196.125,493.08 C196.125,493.08 125.54,500.875 103.665,505.875 L77.415,520.875 L72.205,663.48" fill="#9BD1C4"/>
    <path d="M111.165,660.875 L84.915,701.5 C80.54,687.125 30.54,623.375 30.54,623.375 C34.29,609.625 64.29,543.375 70.54,531.5 C76.79,519.625 86.79,512.125 103.665,505.875 C112.36,502.65 132.255,499.175 148.665,497.125 C148.665,497.125 129.29,517.125 109.915,638.375 L111.165,660.875" fill="#009D90"/>
    <path d="M411.165,660.875 L437.415,701.5 C441.79,687.125 491.79,623.375 491.79,623.375 C488.04,609.625 458.04,543.375 451.79,531.5 C445.54,519.625 435.54,512.125 418.665,505.875 C409.975,502.65 390.08,499.175 373.665,497.125 C373.665,497.125 393.04,517.125 412.415,638.375 L411.165,660.875" fill="#009D90"/>
    <path d="M42.415,639 C42.415,639 0.54,730.25 3.665,754 C6.79,777.75 35.54,888.375 35.54,888.375 C35.54,888.375 24.915,932.125 29.29,939.625 C33.665,947.125 56.335,974.415 68.875,975.04 C81.375,975.665 95.545,971.085 107.105,969.625 C121.275,967.83 129.29,968.685 130.54,965.875 L129.92,966.915 C129.92,966.915 140.75,967.96 140.545,963.585 C140.34,959.21 130.545,954 130.545,954 L96.79,946.5 L82.625,695.04 L42.415,639" fill="#F8D2B5"/>
    <path d="M443.46,693.375 C443.46,693.375 473.88,644.625 479.295,642.125 L488.985,661.27 C470.64,679.62 457.195,729.705 457.195,729.705 L443.46,693.375" fill="#DB9D88"/>
    <path d="M78.875,693.375 C78.875,693.375 48.455,644.625 43.04,642.125 L32.575,660.745 C39.28,667.765 57.895,687.29 70.71,719.93 L78.875,693.375" fill="#DB9D88"/>
    <path d="M230.67,471.415 L231.785,460.775 L231.785,448.695 L290.34,446 L290.34,460.775 L291.395,470.775 L294.65,474.58 C314.315,490.65 261.065,516.155 261.065,516.155 C261.065,516.155 207.81,490.65 227.48,474.58 L230.67,471.415" fill="#F8D2B5"/>
    <path d="M233,448.645 L230.53,485.595 C230.53,485.595 271.445,485.185 288.39,466.76 L290.34,451.085 L233,448.645" fill="#DB9D88"/>
    <path d="M247.41,517.335 L274.49,517.335 L274.49,613.585 L247.41,613.585 z" fill="#009D90"/>
    <path d="M274.49,517.335 L274.49,613.585 L247.41,613.585 L247.41,517.335" fill-opacity="0" stroke="#1A1919" stroke-width="6" stroke-linecap="round" stroke-linejoin="round"/>
    <path d="M227.48,474.58 C207.81,490.65 261.895,516.155 261.895,516.155 C261.895,516.155 247.215,556.875 224.415,559.15 C212.755,560.32 197.235,528.785 197.235,493.485 C197.235,493.485 216.275,468.465 220.3,465.72 C224.32,462.98 231.345,460.41 232.62,460.775 C233.9,461.145 232.2,472.645 232.2,472.645 L227.48,474.58" fill="#009D90"/>
    <path d="M294.65,474.58 C314.315,490.65 260.235,516.155 260.235,516.155 C260.235,516.155 274.91,556.875 297.715,559.15 C309.375,560.32 324.895,528.785 324.895,493.485 C324.895,493.485 319.015,481.985 316.095,478.515 C313.165,475.045 300.545,462.425 297.625,461.515 C294.7,460.6 288.205,458.585 287.83,460.775 C287.47,462.97 288.68,473.5 289.23,474.05 C289.775,474.605 294.885,473.945 294.885,473.945" fill="#009D90"/>
    <path d="M424.605,243.265 C427.4,228.325 429.38,214.615 430.645,201.98 C429.255,169.605 339.585,128.44 252.325,130.145 C169.82,131.76 89.355,174.78 91.09,195.785 C92.655,214.7 91.135,214.68 98.575,243.235 L99.1,258.39 L424,257.785 L424.605,243.265" fill="#564137"/>
    <path d="M102.8,192.87 C102.8,192.87 97.365,212.405 105.195,243.85 L98.575,243.235 C98.575,243.235 86.945,209.95 90.06,200.26 L102.8,192.87" fill="#997B6F"/>
    <path d="M98.575,243.235 C98.575,243.235 94.345,230.55 91.065,211.39 C90.35,207.25 91.85,202.915 91.285,198.23 C90.555,192.23 187.325,149.52 239.51,128.27 C239.51,128.27 430.31,194.515 432.13,201.1 C430.57,213.945 428.115,227.945 424.605,243.265" fill-opacity="0" stroke="#1A1919" stroke-width="7" stroke-linecap="round" stroke-linejoin="round"/>
    <g>
      <path d="M232.2,472.645 C202.2,488.895 260.535,516.155 260.535,516.155 C260.535,516.155 247.215,556.875 224.415,559.15 C212.755,560.32 197.235,528.785 197.235,493.485 M290.115,472.435 C315.74,490.77 261.32,516.155 261.32,516.155 C261.32,516.155 274.91,556.875 297.715,559.15 C309.375,560.32 324.895,528.785 324.895,493.485 M231.37,484.52 L233.87,460.775 M290.33,484.52 L287.83,460.775" fill-opacity="0" stroke="#1A1919" stroke-width="6" stroke-linecap="round" stroke-linejoin="round"/>
      <path d="M229.91,459.935 C229.91,459.935 208.445,471.605 196.125,493.08 C196.125,493.08 125.755,497.69 103.665,505.875 C86.79,512.125 76.79,519.625 70.54,531.5 C64.29,543.375 34.29,609.625 30.54,623.375 C30.54,623.375 80.54,687.125 84.915,701.5 L111.165,660.875 M414.91,630.145 C414.91,630.145 403.66,761.395 398.035,785.145 M108.66,630.145 C108.66,630.145 119.91,761.395 125.535,785.145" fill-opacity="0" stroke="#1A1919" stroke-width="7" stroke-linecap="round" stroke-linejoin="round"/>
    </g>
    <path d="M383.205,611.405 L383.205,680.295 C383.205,691.205 374.27,700.135 363.36,700.135 L317.615,700.135 C306.71,700.135 297.775,691.205 297.775,680.295 L297.775,611.405 L383.205,611.405 z" fill-opacity="0" stroke="#1A1919" stroke-width="5" stroke-linecap="round" stroke-linejoin="round"/>
    <path d="M114.87,254.81 C114.87,254.81 84.075,230.12 72.51,268.84 C59.225,313.315 102.565,364.585 130.065,367.71" fill="#F8D2B5"/>
    <path d="M114.87,254.81 C114.87,254.81 84.075,230.12 72.51,268.84 C59.225,313.315 102.565,364.585 130.065,367.71" fill-opacity="0" stroke="#1A1919" stroke-width="7" stroke-linecap="round" stroke-linejoin="round"/>
    <path d="M89.47,311.06 C95.795,325.455 107.8,334.105 116.265,330.385 C124.74,326.655 126.47,311.97 120.13,297.565 C113.805,283.17 101.8,274.515 93.335,278.245 C84.86,281.965 83.14,296.655 89.47,311.06" fill="#DB9D88"/>
    <path d="M88.97,270.12 C88.97,270.12 105.325,262.935 117.995,290.845" fill-opacity="0" stroke="#1A1919" stroke-width="7" stroke-linecap="round" stroke-linejoin="round"/>
    <path d="M406.445,251.185 C406.445,251.185 436.61,225.74 449.14,264.155 C463.525,308.29 421.475,360.62 394.06,364.43" fill="#F8D2B5"/>
    <path d="M406.445,251.185 C406.445,251.185 436.61,225.74 449.14,264.155 C463.525,308.29 421.475,360.62 394.06,364.43" fill-opacity="0" stroke="#1A1919" stroke-width="7" stroke-linecap="round" stroke-linejoin="round"/>
    <path d="M433.23,306.785 C427.265,321.335 415.485,330.285 406.925,326.775 C398.36,323.25 396.27,308.615 402.245,294.055 C408.215,279.505 420,270.56 428.555,274.08 C437.12,277.59 439.205,292.225 433.23,306.785" fill="#DB9D88"/>
    <path d="M432.715,265.85 C432.715,265.85 416.18,259.07 404.22,287.285" fill-opacity="0" stroke="#1A1919" stroke-width="7" stroke-linecap="round" stroke-linejoin="round"/>
    <path d="M412.04,234.375 C410.72,268.12 404.46,340.495 384.405,386.255 C364.775,431.05 321.26,451.245 275.635,462.96 C260.845,466.05 246.885,462.96 246.885,462.96 C201.26,451.245 154.48,429.41 138.115,386.255 C120.395,339.53 111.8,268.12 110.48,234.375 C119.2,199.08 134.285,170.775 146.66,151.84 L151.68,151.665 C165.725,150.82 179.365,146.77 191.8,141.315 L195.43,146.25 C254.18,148.75 309.385,114.585 327.51,90.21 C327.51,90.21 334.81,150.83 395.015,182.5 L398.315,182.495 C403.59,195.805 408.53,210.91 412.035,227.125 L412.04,234.375" fill="#F8D2B5"/>
    <path d="M176.335,34.56 C176.335,34.56 216.745,61.23 266.15,62.855 C266.15,62.855 284.17,68.83 248.125,70.495 C212.075,72.175 174.055,68.165 151.195,57.09 L176.335,34.56" fill="#B7A293"/>
    <path d="M166.885,125.2 C166.885,125.2 127.1,167.085 110.48,234.375 C111.8,268.12 120.395,339.53 138.115,386.255 C154.48,429.41 216.955,462.96 261.26,462.96 C303.135,462.96 364.775,431.05 384.405,386.255 C404.46,340.495 410.72,268.12 412.04,234.375" fill-opacity="0" stroke="#1A1919" stroke-width="7" stroke-linecap="round" stroke-linejoin="round"/>
    <path d="M249.59,272.805 C249.59,272.805 253.045,285.945 250.74,299.48 M256.745,291.995 C256.745,291.995 242.795,309.44 242.44,315.72 C242.095,321.985 253.91,332.455 253.91,332.455" fill-opacity="0" stroke="#1A1919" stroke-width="6" stroke-linecap="round" stroke-linejoin="round"/>
    <path d="M177.14,304.535 C177.14,311.91 165.355,317.885 150.825,317.885 C136.295,317.885 124.5,311.91 124.5,304.535 C124.5,297.165 136.295,291.195 150.825,291.195 C165.355,291.195 177.14,297.165 177.14,304.535" fill="#EB9294"/>
    <path d="M344.55,304.535 C344.55,311.91 356.335,317.885 370.865,317.885 C385.395,317.885 397.185,311.91 397.185,304.535 C397.185,297.165 385.395,291.195 370.865,291.195 C356.335,291.195 344.55,297.165 344.55,304.535" fill="#EB9294"/>
    <path d="M226.965,259.32 C226.965,281.22 212.98,298.97 195.73,298.97 C178.46,298.97 164.485,281.22 164.485,259.32 C164.485,237.405 178.46,219.65 195.73,219.65 C212.98,219.65 226.965,237.405 226.965,259.32" fill="#FFFFFE"/>
    <path d="M295.555,259.32 C295.555,281.22 309.54,298.97 326.795,298.97 C344.06,298.97 358.035,281.22 358.035,259.32 C358.035,237.405 344.06,219.65 326.795,219.65 C309.54,219.65 295.555,237.405 295.555,259.32" fill="#FFFFFE"/>
    <path d="M163.825,251.92 C163.825,251.92 167.145,227.715 189.75,220.99 C216.19,213.125 222.97,239.825 222.97,239.825 C222.97,239.825 209.2,229.58 192.795,233.765 C177.32,237.705 163.825,251.92 163.825,251.92" fill="#D8E9F1"/>
    <path d="M358.7,251.92 C358.7,251.92 355.375,227.715 332.775,220.99 C306.34,213.125 299.55,239.825 299.55,239.825 C299.55,239.825 313.325,229.58 329.725,233.765 C345.21,237.705 358.7,251.92 358.7,251.92" fill="#D8E9F1"/>
    <path d="M300.715,258.975 C300.715,273.635 308.69,285.54 318.52,285.54 C328.345,285.54 336.325,273.635 336.325,258.975 C336.325,244.305 328.345,232.42 318.52,232.42 C308.69,232.42 300.715,244.305 300.715,258.975" fill="#1A1919"/>
    <path d="M299.55,239.825 C299.55,239.825 306.34,213.125 332.775,220.99 C355.375,227.715 358.7,251.92 358.7,251.92" fill-opacity="0" stroke="#1A1919" stroke-width="7" stroke-linecap="round" stroke-linejoin="round"/>
    <path d="M232.905,198.66 C231.295,200.44 222.585,193.61 211.53,192.135 C206.05,191.265 200.135,191.46 195.08,192.135 C189.96,192.705 186.62,193.995 184.61,194.81 C180.79,196.375 176.855,199.12 173.68,201.18 C170.475,203.205 167.79,204.625 165.375,202.795 C163.01,201.015 163.97,197.4 167.175,193.81 C170.335,190.195 175.61,186.96 180.52,184.965 C181.755,184.475 183.56,183.755 185.91,183.155 C188.235,182.51 191.195,182.1 194.02,181.875 C199.845,181.39 206.955,181.64 213.47,183.515 C220.005,185.345 225.595,188.785 228.915,191.975 C232.275,195.165 233.665,197.835 232.905,198.66" fill="#1A1919"/>
    <path d="M290.455,198.66 C289.69,197.83 291.085,195.165 294.445,191.97 C297.765,188.785 303.355,185.345 309.89,183.515 C316.4,181.64 323.515,181.39 329.34,181.875 C332.165,182.1 335.125,182.51 337.45,183.155 C339.8,183.755 341.605,184.475 342.84,184.965 C347.75,186.96 353.025,190.19 356.185,193.805 C359.395,197.4 360.35,201.01 357.985,202.795 C355.57,204.625 352.885,203.205 349.685,201.18 C346.51,199.12 342.575,196.375 338.745,194.81 C336.74,193.995 333.405,192.705 328.28,192.13 C323.225,191.46 317.31,191.265 311.83,192.13 C300.77,193.61 292.06,200.44 290.455,198.66" fill="#1A1919"/>
    <path d="M195.43,146.25 C254.18,148.75 309.385,114.585 327.51,90.21 C327.51,90.21 334.81,150.83 395.015,182.5 M250.015,101.665 C250.015,101.665 203.555,148.54 151.68,151.665 M368.505,127.86 C368.505,127.86 403.51,178.175 413.51,241.925" fill-opacity="0" stroke="#1A1919" stroke-width="7" stroke-linecap="round" stroke-linejoin="round"/>
    <path d="M221.805,258.975 C221.805,273.635 213.835,285.54 204,285.54 C194.18,285.54 186.205,273.635 186.205,258.975 C186.205,244.305 194.18,232.42 204,232.42 C213.835,232.42 221.805,244.305 221.805,258.975" fill="#1A1919"/>
    <path d="M220.95,249.475 C220.95,252.92 218.51,255.715 215.495,255.715 C212.49,255.715 210.045,252.92 210.045,249.475 C210.045,246.01 212.49,243.205 215.495,243.205 C218.51,243.205 220.95,246.01 220.95,249.475" fill="#FFFFFE"/>
    <path d="M335.365,249.475 C335.365,252.92 332.925,255.715 329.905,255.715 C326.9,255.715 324.455,252.92 324.455,249.475 C324.455,246.01 326.9,243.205 329.905,243.205 C332.925,243.205 335.365,246.01 335.365,249.475" fill="#FFFFFE"/>
    <path d="M222.97,239.825 C222.97,239.825 216.19,213.125 189.75,220.99 C167.145,227.715 163.825,251.92 163.825,251.92" fill-opacity="0" stroke="#1A1919" stroke-width="7" stroke-linecap="round" stroke-linejoin="round"/>
    <path d="M89.455,213.895 C89.455,206.245 121.545,176.815 260.935,176.815 C400.345,176.815 432.45,206.245 432.45,213.895 L419.89,134.53 L123.335,122.055 C123.335,122.055 101.84,135.425 100.05,145.215 C98.265,155.035 89.455,213.895 89.455,213.895" fill="#9BD1C4"/>
    <path d="M89.455,213.895 C89.455,206.245 121.545,176.815 260.935,176.815 C400.345,176.815 432.45,206.245 432.45,213.895 L419.89,134.53 L123.335,122.055 C123.335,122.055 101.84,135.425 100.05,145.215 C98.265,155.035 89.455,213.895 89.455,213.895 z" fill-opacity="0" stroke="#1A1919" stroke-width="7" stroke-linecap="round" stroke-linejoin="round"/>
    <path d="M260.935,3.6 C308.585,3.6 372.795,16.075 399.59,55.425 C420.24,85.73 434.26,136.355 434.26,208.72 C434.26,194.07 395.015,139.31 260.935,139.31 C120.08,139.31 87.645,194.07 87.645,208.72 C87.645,128.575 101.675,85.73 122.305,55.425 C149.11,16.075 213.32,3.6 260.935,3.6" fill="#009D90"/>
    <path d="M260.935,3.6 C308.085,3.6 372.81,17.435 399.605,57.75 C420.255,88.8 432.45,130.9 432.45,211.045 C432.45,196.4 400.345,139.31 260.935,139.31 C121.545,139.31 89.455,196.4 89.455,211.045 C89.455,130.9 101.66,88.8 122.29,57.75 C149.1,17.435 213.82,3.6 260.935,3.6 z" fill-opacity="0" stroke="#1A1919" stroke-width="7" stroke-linecap="round" stroke-linejoin="round"/>
    <path d="M330.89,93.295 C330.89,109.79 299.475,123.165 260.73,123.165 C221.965,123.165 190.54,109.79 190.54,93.295 C190.54,76.81 221.965,63.435 260.73,63.435 C299.475,63.435 330.89,76.81 330.89,93.295" fill="#9BD1C4"/>
    <path d="M257.945,361.82 C295.845,361.82 315.345,355.005 315.345,355.005 C315.68,371.205 310.36,435.69 259.83,435.69 C209.3,435.69 203.985,371.205 204.31,355.005 C204.31,355.005 220.04,361.82 257.945,361.82" fill="#DC6376"/>
    <path d="M260.495,373.15 C279.94,373.15 297.815,378.835 312.2,387.245 C314.915,375.07 315.465,360.49 315.345,355.005 C315.345,355.005 295.735,359.205 257.83,359.205 C219.925,359.205 204.31,355.005 204.31,355.005 C204.2,360.595 204.76,375.485 207.61,387.92 C221.435,378.495 240.52,373.15 260.495,373.15" fill="#B35251"/>
    <g>
      <path d="M257.83,359.205 C295.735,359.205 315.345,355.005 315.345,355.005 C315.68,371.205 310.36,435.69 259.83,435.69 C209.3,435.69 203.985,371.205 204.31,355.005 C204.31,355.005 219.925,359.205 257.83,359.205 z" fill-opacity="0" stroke="#1A1919" stroke-width="6" stroke-linecap="round" stroke-linejoin="round"/>
      <path d="M42.415,639 C42.415,639 0.54,730.25 3.665,754 C6.79,777.75 35.54,888.375 35.54,888.375 C35.54,888.375 24.915,932.125 29.29,939.625 C33.665,947.125 56.335,974.415 68.875,975.04 C81.375,975.665 95.545,971.085 107.105,969.625 C121.275,967.83 129.29,968.685 130.54,965.875 C131.79,963.06 122.105,954.625 111.165,953.685 M130.545,954 C130.545,954 140.34,959.21 140.545,963.585 C140.75,967.96 129.92,966.915 129.92,966.915 M53.045,874.625 C53.045,874.625 67.945,889.995 63.045,918.375 C63.875,928.38 63.37,934.005 60.545,942.755 C56.17,952.545 45.225,952.23 46.585,947.96 C49.71,938.165 48.46,933.165 48.25,930.46 C48.04,927.755 41.375,913.79 41.375,913.79 M292.605,459.935 C292.605,459.935 314.075,471.605 326.395,493.08 C326.395,493.08 396.765,497.69 418.855,505.875 C435.73,512.125 445.73,519.625 451.98,531.5 C458.23,543.375 488.23,609.625 491.98,623.375 C491.98,623.375 441.98,687.125 437.605,701.5 L413.11,663.6 M480.105,639 C480.105,639 521.98,730.25 518.855,754 C515.73,777.75 486.98,888.375 486.98,888.375 C486.98,888.375 497.605,932.125 493.23,939.625 C488.855,947.125 466.185,974.415 453.645,975.04 C441.145,975.665 426.975,971.085 415.415,969.625 C401.245,967.83 393.23,968.685 391.98,965.875 C390.73,963.06 400.415,954.625 411.355,953.685 M391.975,954 C391.975,954 382.18,959.21 381.975,963.585 C381.77,967.96 392.6,966.915 392.6,966.915 M469.475,874.625 C469.475,874.625 454.575,889.995 459.475,918.375 C458.645,928.38 459.15,934.005 461.975,942.755 C466.35,952.545 477.295,952.23 475.935,947.96 C472.81,938.165 474.06,933.165 474.27,930.46 C474.48,927.755 481.145,913.79 481.145,913.79" fill-opacity="0" stroke="#1A1919" stroke-width="7" stroke-linecap="round" stroke-linejoin="round"/>
    </g>
    <path d="M64.035,659.79 L458.49,659.79 L458.49,954 L64.035,954 z" fill="#C7A873"/>
    <path d="M241.165,661.5 L288.04,661.5 L288.04,729 L241.165,729 z" fill="#F5E1AD"/>
    <path d="M64.035,659.79 L458.49,659.79 L458.49,954 L64.035,954 z" fill-opacity="0" stroke="#1A1919" stroke-width="7.5" stroke-linecap="round" stroke-linejoin="round"/>
  </g>
</svg>
